<?xml version="1.0" encoding="UTF-8"?>
<svg id="Layer_1" xmlns="http://www.w3.org/2000/svg" version="1.1" viewBox="0 0 138.9 167.8">
  <!-- Generator: Adobe Illustrator 29.2.1, SVG Export Plug-In . SVG Version: 2.1.0 Build 116)  -->
  <defs>
    <style>
      .st0 {
        fill: #f2e7d6;
      }

      .st1 {
        fill: #c57429;
      }

      .st2 {
        fill: #d7a429;
      }
    </style>
  </defs>
  <path class="st2" d="M49,17.3c-14.2,4.1-25.4,14.4-32,27.8-8.2,16.7-16,42.8-2.3,66.1,22.4,38.1,50.1,45,70.6,37.6,17.3-6.2,60-36.4,41.9-77.7C113.4,39.5,86.1,6.6,49,17.3Z"/>
  <g>
    <path class="st0" d="M52.8,101.1v-35.8h-6.6v-1.8c12.2-2.6,21.6-11.4,23.8-18.4h.8v17h9.9v3.2h-9.9v31.9c0,5.9,2.4,8,5.6,8s4.6-1.2,6.9-3.3l.7.4c-2.4,5.5-8.9,10.7-17.4,10.7s-13.9-6.4-13.9-12Z"/>
    <path class="st1" d="M94.1,105.5c0-4.1,3.2-7.2,7.1-7.2s7.1,3.1,7.1,7.2-3.1,7.3-7.1,7.3-7.1-3.2-7.1-7.3Z"/>
  </g>
</svg>