<?xml version="1.0" encoding="UTF-8"?>
<svg id="Layer_1" xmlns="http://www.w3.org/2000/svg" version="1.1" viewBox="0 0 201.6 72">
  <!-- Generator: Adobe Illustrator 29.2.1, SVG Export Plug-In . SVG Version: 2.1.0 Build 116)  -->
  <defs>
    <style>
      .st0 {
        fill: #c57429;
      }

      .st1 {
        fill: #d7a429;
      }
    </style>
  </defs>
  <g>
    <path class="st1" d="M16.8,52.7v-17.6h-3.2v-.9c6-1.3,10.6-5.6,11.7-9h.4v8.3h4.9v1.6h-4.9v15.7c0,2.9,1.2,3.9,2.8,3.9s2.2-.6,3.4-1.6l.4.2c-1.2,2.7-4.4,5.3-8.5,5.3s-6.8-3.2-6.8-5.9Z"/>
    <path class="st1" d="M39.5,56.9c-1.7-1.2-2.5-2.8-2.5-4.6s.3-2.9,1.2-4.1c1.4-1.7,3.9-2.5,6-3,3.2-.8,6.6-1.2,9.9-1.8v-.8c0-3.7-.5-5.4-1.5-6.8-.9-1.3-2.9-2.2-4.9-2.2s-2.9.6-3.7,1.6c1.3.5,2.2,1.8,2.2,3.3s-1.6,3.5-3.5,3.5-3.5-1.6-3.5-3.5v-.2h0v-.3c.1-1.3.9-2.5,2.4-3.4,1.6-1,4.1-1.7,7.4-1.7s6.8.4,9.5,2.2c2.8,1.8,3.8,5.2,3.8,8.3v11c0,3.5,3.3,3.2,3.3,3.2v.4h-4.6c-2.1,0-3.7-.6-4.9-1.8s-.9-1.1-1.1-1.8l-.2-.4-.2.4c-.5.8-1.1,1.5-1.8,2.2-1.6,1.4-3.5,2.1-5.9,2.1s-5.6-.6-7.3-1.8ZM52.7,55.3c.4-.5.8-1.2,1.3-2h0c0,0,0-9.3,0-9.3-.6.1-5.6,2-7.3,3.3-.3.2-.6.5-.9.8-1.5,1.9-1.3,4.9-.1,7,.4.7.9,1.3,1.5,1.8.8.5,1.9.5,2.7.3.9-.3,2-1,2.7-1.7Z"/>
    <path class="st1" d="M84.1,58h-14.8v-.4s3.2.4,3.3-2.8c0-2.3,0-14.1,0-21.7v-6c0-3.2-3.3-2.8-3.3-2.8v-.4h4.3c4.5,0,6.9,3.8,7.1,7v5.6l.4-.5c.6-.6,1.1-1.1,1.6-1.5,1.5-1,3.3-1.6,5.3-1.6s3.8.4,5.4,1.2c1.5.7,2.8,1.7,3.7,2.9.9,1.2,1.3,2.5,1.3,3.8v13.8c0,3.2,3.3,2.8,3.3,2.8v.4h-5.6c-3.8,0-5.9-2.2-5.9-5.5v-11.5c0-2.1-.4-3.7-1.3-4.9-.8-1.2-1.8-1.7-3-1.7s-2.8.7-3.8,2c-.5.6-.9,1.2-1.2,2v16.4c0,3.1,3.2,2.8,3.2,2.8v.4Z"/>
    <path class="st1" d="M121.1,58h-14.7v-.4s3.3.4,3.3-3.2v-27.3c0-3.2-3.3-2.8-3.3-2.8v-.4h4.3c4.7,0,7.2,4.2,7.2,7.5v22.9c0,3.7,3.2,3.2,3.2,3.2v.4Z"/>
    <path class="st1" d="M140.3,58h-14.8v-.4s3.3.4,3.3-3.2v-17.8c0-3.2-3.3-2.8-3.3-2.8v-.4h4.3c4.6,0,7.1,4,7.1,7.4v13.6c0,3.6,3.3,3.2,3.3,3.2v.4ZM129.8,29.5c-.7-.7-1-1.5-1-2.6s.3-1.9,1-2.6c.7-.7,1.5-1.1,2.6-1.1s1.9.4,2.6,1.1c.7.7,1,1.5,1,2.6s-.3,1.9-1,2.6-1.5,1-2.6,1-1.9-.4-2.6-1Z"/>
    <path class="st1" d="M147.2,56.9c-1.7-1.2-2.5-2.8-2.5-4.6s.3-2.9,1.2-4.1c1.4-1.7,3.9-2.5,6-3,3.2-.8,6.6-1.2,9.9-1.8v-.8c0-3.7-.5-5.4-1.5-6.8-.9-1.3-2.9-2.2-4.9-2.2s-2.9.6-3.7,1.6c1.3.5,2.2,1.8,2.2,3.3s-1.6,3.5-3.5,3.5-3.5-1.6-3.5-3.5v-.2h0v-.3c.1-1.3.9-2.5,2.4-3.4,1.6-1,4.1-1.7,7.4-1.7s6.8.4,9.5,2.2c2.8,1.8,3.8,5.2,3.8,8.3v11c0,3.5,3.3,3.2,3.3,3.2v.4h-4.6c-2.1,0-3.7-.6-4.9-1.8s-.9-1.1-1.1-1.8l-.2-.4-.2.4c-.5.8-1.1,1.5-1.8,2.2-1.6,1.4-3.5,2.1-5.9,2.1s-5.6-.6-7.3-1.8ZM160.5,55.3c.4-.5.8-1.2,1.3-2h0c0,0,0-9.3,0-9.3-.6.1-5.6,2-7.3,3.3-.3.2-.6.5-.9.8-1.5,1.9-1.3,4.9-.1,7,.4.7.9,1.3,1.5,1.8.8.5,1.9.5,2.7.3.9-.3,2-1,2.7-1.7Z"/>
    <path class="st0" d="M179.7,57.1c-.7-.7-1-1.5-1-2.4s.4-1.7,1-2.4c.7-.7,1.5-1,2.4-1s1.7.4,2.4,1c.7.7,1,1.5,1,2.4s-.4,1.7-1,2.4c-.7.7-1.5,1-2.4,1s-1.7-.4-2.4-1Z"/>
  </g>
  <g>
    <path class="st1" d="M150.6,22c-.1.7-.6,1.6-1.4,2-1.4.7-2.9-.2-3.6-1.8-.9-1.9-.3-3.8,1.4-4.6.5-.2.9-.3,1.5-.2l-.7-1.5c-.3-.7-.6-.6-1.1-.2h0c0-.1,2.5-2.3,2.5-2.3l3.4,7.3c.3.6.6.6,1.1.2h0c0,.1-2.4,2.3-2.4,2.3l-.5-1.1ZM150.5,21.7l-1.6-3.4c-.4-.5-1-.6-1.4-.4-.7.3-.7,1.2,0,2.8.7,1.4,1.7,2.1,2.3,1.9.3-.1.5-.5.6-.8Z"/>
    <path class="st1" d="M154.2,18.5c-.1-1.6.9-3.5,3-3.7,2.1-.2,3.1,1,3.2,2.3l-4.2.4c.1,1.6,1.1,2.7,2.5,2.6.6,0,1.3-.3,1.9-1.3h.1c-.2,1.1-1.2,2.5-2.9,2.7-2.1.2-3.5-1-3.7-2.9ZM158.3,16.8c-.2-1-.6-1.7-1.2-1.6-.6,0-.9.8-.8,1.8l2-.2Z"/>
    <path class="st1" d="M162.7,21.1c-.1,0-.2-.1-.3-.1-.1,0-.3,0-.3.2h-.1s.5-2.2.5-2.2h.1c0,1.2.8,2.2,1.7,2.4.6.1,1.1-.2,1.2-.7.1-.6-.4-1-1.1-1.5-1.1-.7-1.8-1.2-1.5-2.4.3-1.4,1.7-1.8,2.9-1.6.7.2,1.1.5,1.4.6,0,0,.1,0,.2,0,.1,0,.2,0,.3-.1h.1s-.3,2-.3,2h-.1c0-1.2-.8-2-1.6-2.1-.6-.1-1.1,0-1.2.6-.1.6.5.9,1.3,1.4,1.2.7,1.8,1.3,1.6,2.5-.3,1.5-1.9,1.9-3,1.6-.8-.2-1.3-.5-1.7-.7Z"/>
    <path class="st1" d="M167.9,22.5c.7.3,1,.1,1.4-.9l1.4-3c.3-.6.2-.8-.5-1h0c0-.1,3.3.4,3.3.4l-2.2,4.5c-.5,1-.5,1.3.1,1.6h0c0,0-3.6-1.7-3.6-1.7h0ZM172.1,15.4c.3-.6,1.1-.8,1.7-.5.6.3,1,1,.7,1.6-.3.6-1.1.8-1.7.5-.6-.3-1-1-.7-1.6Z"/>
    <path class="st1" d="M170.6,25.9c.3-.3.9-.3,2-.4-.1-.5-.1-.7.2-1.1.4-.5,1.3-.5,2-.5-.3-.8-.3-1.6.3-2.3,1.1-1.2,2.7-.7,3.7.2.5.4.9.9,1.1,1.5l1.2,1s0,0,0,.1l-.3.4s0,0-.1,0l-.6-.5c0,.4-.2.7-.5,1.1-1.1,1.2-2.7.7-3.7-.2-.3-.3-.6-.6-.9-1-.2,0-.4,0-.5.2-.2.2-.1.5.5,1,.3.3.9.7,1.2,1,1.4,1.2,1.5,2.2.7,3.1-1,1.2-3.3.8-5-.7-1.5-1.3-1.7-2.4-1.2-2.9ZM175.9,29.6c.3-.4,0-.8-.8-1.5-.4-.4-.7-.5-1.3-1-.8-.7-.9-.8-1.1-1.2-.4,0-.7.2-.8.4-.6.6,0,1.5.9,2.4,1.4,1.2,2.7,1.5,3.1,1ZM177.7,24.4c.7-.8,1.4-2,.8-2.5-.5-.5-1.2.2-1.6.7-.7.8-1.3,2-.8,2.5.5.4,1.1-.2,1.6-.7Z"/>
    <path class="st1" d="M177.7,29.2c.5.6.7.5,1.7,0l2.8-1.6c.6-.4.7-.6.2-1.1h.1c0,0,2.4,2.2,2.4,2.2l-1.2.7c1.1.3,1.9.7,2.3,1.4.5.8.5,1.8-.7,2.5l-2.7,1.5c-1,.6-1.2.7-.8,1.4h0c0,0-1.9-3.3-1.9-3.3h0c.4.5.6.5,1.6,0l2.5-1.4c.6-.3.7-.7.5-1.2-.2-.3-.5-.5-1-.7l-2.9,1.7c-1,.5-1.1.7-.9,1.4h0c0,0-1.9-3.3-1.9-3.3h0Z"/>
  </g>
</svg>